<svg xmlns="http://www.w3.org/2000/svg" width="24" height="24" viewBox="0 0 24 24"><path fill="#ffffff" d="M12 0c-6.626 0-12 5.373-12 12 0 5.302 3.438 9.8 8.207 11.387 0.599 0.111 0.793-0.261 0.793-0.577v-2.234c-3.338 0.726-4.033-1.416-4.033-1.416-0.546-1.387-1.333-1.756-1.333-1.756-1.087-0.744 0.084-0.729 0.084-0.729 1.205 0.084 1.838 1.236 1.838 1.236 1.07 1.835 2.809 1.305 3.493 0.998 0.108-0.776 0.418-1.305 0.762-1.604-2.665-0.295-5.466-1.332-5.466-5.931 0-1.311 0.469-2.381 1.236-3.221-0.124-0.295-0.535-1.524 0.118-3.176 0 0 1.008-0.322 3.301 1.23-0.957-0.266-1.983-0.399-3.003-0.399-1.021 0-2.047 0.133-3.004 0.399-2.293-1.552-3.301-1.23-3.301-1.23-0.653 1.653-0.242 2.881 0.118 3.176-0.767 0.84-1.235 1.911-1.235 3.221 0 4.609 2.807 5.624 5.479 5.923-0.459 0.397-0.869 1.116-0.869 2.249v3.34c0 0.316 0.194 0.691 0.802 0.576 4.765-1.589 8.197-6.092 8.197-11.387 0-6.627-5.373-12-12-12z"/></svg>