<svg xmlns="http://www.w3.org/2000/svg" width="24" height="24" viewBox="0 0 24 24"><path fill="#ffffff" d="M24 4.557c-.883.392-1.832.656-2.828.775 1.017-.609 1.791-1.574 2.162-2.723-.951.564-2.005.974-3.127 1.195-.897-.957-2.178-1.555-3.594-1.555-3.594 0-6.49 2.902-6.49 6.49 0 .509.058 1.007.162 1.487-5.392-.27-10.187-2.868-13.387-6.8-0.562.971-0.887 2.109-0.887 3.308 0 2.272 1.159 4.265 2.919 5.463-0.854-0.023-1.656-0.261-2.364-0.658v0.081c0 3.154 2.239 5.77 5.194 6.362-0.547.143-1.127.272-1.725.272-0.424 0-0.834-0.04-1.234-0.117 0.823 2.572 3.224 4.437 6.06 4.48-2.224 1.742-5.047 2.625-7.871 2.625-0.511 0-1.021-0.029-1.527-0.088 2.929 1.863 6.402 2.955 10.129 2.955 12.137 0 18.781-10.037 18.781-18.781 0-0.359-0.007-0.718-0.019-1.075 1.283-0.923 2.395-2.074 3.287-3.395z"/></svg>